<svg xmlns="http://www.w3.org/2000/svg" width="100" height="12" fill="none"><g fill="#030404"><path d="M0 11.829V.172h2.803v9.154h5.639v2.503H0zM14.148 0c.775-.02 1.545.12 2.265.416a5.7 5.7 0 011.921 1.3A5.882 5.882 0 0119.6 3.692a6.01 6.01 0 01.404 2.327 6.085 6.085 0 01-1.71 4.243 5.761 5.761 0 01-4.13 1.757 5.76 5.76 0 01-4.128-1.757 6.085 6.085 0 01-1.71-4.243 6.003 6.003 0 01.4-2.32 5.876 5.876 0 011.256-1.971 5.693 5.693 0 011.91-1.303A5.567 5.567 0 0114.148 0zm.017 9.292c.416.008.83-.072 1.214-.235a3.03 3.03 0 001.022-.713 3.13 3.13 0 00.66-1.072c.147-.4.212-.828.19-1.255a3.252 3.252 0 00-.204-1.246 3.187 3.187 0 00-.662-1.066 3.088 3.088 0 00-1.014-.716 3.017 3.017 0 00-2.412 0c-.381.166-.726.41-1.014.716a3.186 3.186 0 00-.662 1.066 3.254 3.254 0 00-.205 1.246c-.017.426.051.851.199 1.25.148.398.373.761.662 1.068a3.06 3.06 0 001.017.713c.383.165.794.247 1.209.244zM23.622 4.749v7.08h-2.803V.172h2.436l5.706 7.08V.172h2.803v11.657h-2.42l-5.722-7.08zM43.571 4.938v5.434a8.632 8.632 0 01-4.888 1.629c-3.354 0-6.04-2.229-6.04-5.983 0-3.788 2.686-6.017 6.04-6.017a6.903 6.903 0 014.454 1.56l-1.284 2.176a4.759 4.759 0 00-3.104-1.08 2.973 2.973 0 00-1.269.209c-.404.16-.77.409-1.072.727a3.144 3.144 0 00-.686 1.117 3.21 3.21 0 00-.176 1.307c0 2.109 1.384 3.326 3.32 3.326a4.49 4.49 0 002.052-.497V7.132h-2.72V4.938h5.373zM44.625.172h5.021c2.52 0 4.004.994 4.004 3.137a2.606 2.606 0 01-.435 1.495c-.293.44-.713.773-1.2.956 1.585.343 2.536 1.268 2.536 2.914 0 1.954-1.468 3.154-4.137 3.154h-5.79V.172zm4.571 4.577c1.001 0 1.569-.343 1.569-1.132 0-.822-.534-1.148-1.535-1.148h-1.802v2.28h1.768zm.801 4.783c1.051 0 1.569-.412 1.569-1.2 0-.858-.601-1.252-1.702-1.252h-2.436v2.452h2.57zM55.345 11.829V.172h9.11v2.502h-6.44V4.68h5.222v2.415h-5.222v2.229h6.44v2.505h-9.11zM69.416.172h3.287l4.304 11.657H74.17l-.768-2.143h-4.756l-.784 2.143h-2.836L69.416.172zm-.068 7.403h3.353l-1.634-4.56-1.719 4.56zM93.894.172h-5.09v9.163h-1.417c-1.05 0-2.052-.85-3.07-1.81a3.45 3.45 0 002.12-1.19 3.628 3.628 0 00.85-2.323c0-2.726-2.152-3.84-4.355-3.84h-5.389v11.657h2.803v-4.2h.601c1.477 1.04 3.366 4.163 5.947 4.197l7 .003c3.353 0 5.855-2.057 5.855-5.812 0-3.789-2.502-5.829-5.855-5.845zM82.883 5.554h-2.536v-2.88h2.536a1.316 1.316 0 011.073.365c.143.137.255.304.329.49.074.185.108.385.1.585.005.2-.031.398-.106.582-.075.185-.187.35-.33.487a1.335 1.335 0 01-1.067.372zm10.894 3.78h-2.169v-6.66h2.169c1.835 0 3.087 1.183 3.087 3.343 0 2.126-1.252 3.318-3.087 3.318z"/></g></svg>