<svg width="11" height="20" viewBox="0 0 11 20" fill="none" xmlns="http://www.w3.org/2000/svg"><path d="M10.0749 0.00731166H7.56403C6.93432 -0.0295767 6.30427 0.0734213 5.7164 0.309354C5.12854 0.545287 4.59654 0.908664 4.15631 1.37496C3.71608 1.84126 3.37786 2.39962 3.16449 3.01237C2.95111 3.62512 2.86754 4.278 2.91942 4.92693V7.19635H0.395321C0.290476 7.19635 0.189924 7.23934 0.115787 7.31588C0.04165 7.39242 0 7.49623 0 7.60447V10.8899C0 10.9981 0.04165 11.102 0.115787 11.1785C0.189924 11.255 0.290476 11.298 0.395321 11.298H2.91942V19.5919C2.91942 19.7001 2.96107 19.8039 3.03521 19.8805C3.10934 19.957 3.20989 20 3.31474 20H6.60963C6.71448 20 6.81503 19.957 6.88917 19.8805C6.9633 19.8039 7.00495 19.7001 7.00495 19.5919V11.298H9.96242C10.0673 11.298 10.1678 11.255 10.242 11.1785C10.3161 11.102 10.3577 10.9981 10.3577 10.8899V7.60447C10.3577 7.49623 10.3161 7.39242 10.242 7.31588C10.1678 7.23934 10.0673 7.19635 9.96242 7.19635H7.0033V5.27358C7.0033 4.34976 7.21667 3.88017 8.38279 3.88017H10.0749C10.1797 3.88017 10.2803 3.83717 10.3544 3.76063C10.4286 3.6841 10.4702 3.58029 10.4702 3.47205V0.418845C10.4707 0.364964 10.4607 0.311526 10.4411 0.261616C10.4214 0.211706 10.3924 0.166312 10.3556 0.128052C10.3189 0.089792 10.2751 0.0594244 10.2269 0.0387013C10.1788 0.0179782 10.1271 0.00730978 10.0749 0.00731166V0.00731166Z" fill="currentColor"/></svg>
