<svg xmlns="http://www.w3.org/2000/svg" fill="none" viewBox="0 0 20 20" width="20" height="20"><path fill="currentColor" d="M14.481 0H5.519A5.526 5.526 0 0 0 0 5.52v8.961A5.526 5.526 0 0 0 5.52 20h8.961A5.526 5.526 0 0 0 20 14.481V5.519A5.526 5.526 0 0 0 14.481 0Zm3.741 14.481a3.75 3.75 0 0 1-3.741 3.741H5.519a3.75 3.75 0 0 1-3.745-3.745V5.52A3.75 3.75 0 0 1 5.52 1.774h8.962a3.75 3.75 0 0 1 3.741 3.745v8.962Z"/><path fill="currentColor" d="M10 4.847a5.153 5.153 0 1 0 0 10.307 5.153 5.153 0 0 0 0-10.307Zm0 8.533a3.379 3.379 0 1 1 0-6.758 3.379 3.379 0 0 1 0 6.758ZM15.37 3.343a1.3 1.3 0 1 0 .002 2.6 1.3 1.3 0 0 0-.002-2.6Z"/></svg>