<svg width="21" height="20" viewBox="0 0 21 20" fill="none" xmlns="http://www.w3.org/2000/svg"><path d="M20.9887 12.2626V19.9932H16.6483V12.7818C16.6483 10.9696 16.0205 9.72754 14.4493 9.72754C13.9597 9.73044 13.483 9.88949 13.0844 10.1829C12.6857 10.4763 12.3847 10.8898 12.2224 11.3667C12.1087 11.7225 12.0591 12.0969 12.0761 12.4713V20H7.73573C7.73573 20 7.79489 7.783 7.73573 6.51888H12.0761V8.42948L12.0482 8.4736H12.0761V8.42948C12.4679 7.72283 13.0398 7.14066 13.7298 6.74634C14.4198 6.35202 15.2013 6.16066 15.9892 6.19309C18.8472 6.19309 20.9887 8.12236 20.9887 12.2626ZM3.20139 0.0133201C2.88842 -0.0213314 2.57189 0.0118063 2.27202 0.110613C1.97216 0.209419 1.69556 0.371722 1.45989 0.587152C1.22423 0.802581 1.03468 1.0664 0.903365 1.36175C0.77205 1.65709 0.701854 1.97748 0.697262 2.30242C0.692671 2.62737 0.753785 2.94973 0.8767 3.2489C0.999615 3.54808 1.18163 3.81749 1.41111 4.03993C1.64059 4.26236 1.91248 4.43293 2.20943 4.54072C2.50637 4.64852 2.82183 4.69118 3.13565 4.66596H3.16523C3.47854 4.69877 3.79503 4.6637 4.09446 4.563C4.39389 4.4623 4.66967 4.29818 4.90416 4.08115C5.13865 3.86412 5.32669 3.59895 5.45624 3.30261C5.5858 3.00626 5.65402 2.68526 5.65654 2.36013C5.65907 2.035 5.59585 1.71291 5.47091 1.41446C5.34598 1.116 5.16209 0.847749 4.93101 0.626862C4.69992 0.405975 4.42673 0.237315 4.1289 0.131667C3.83107 0.0260196 3.51516 -0.0142892 3.20139 0.0133201V0.0133201ZM0.994202 19.9932H5.3379V6.51209H0.994202V19.9932Z" fill="currentColor"/></svg>
