<svg width="25" height="20" viewBox="0 0 25 20" fill="none" xmlns="http://www.w3.org/2000/svg"><path d="M23.782 2.32636C23.2583 2.56296 22.7144 2.74992 22.1571 2.88488C22.7758 2.28709 23.2367 1.53984 23.4972 0.712264V0.712264C23.5134 0.659937 23.5136 0.603843 23.4979 0.551367C23.4822 0.498891 23.4513 0.452491 23.4092 0.418285C23.3671 0.384079 23.3159 0.363671 23.2622 0.359742C23.2086 0.355813 23.155 0.368548 23.1086 0.396275C22.3336 0.865226 21.4963 1.21786 20.6227 1.4433C20.5718 1.4567 20.5195 1.46358 20.4669 1.4638C20.3061 1.463 20.1512 1.40224 20.0314 1.293C19.1003 0.457024 17.9016 -0.00285957 16.661 1.33798e-05C16.115 0.00133458 15.5723 0.0865527 15.0512 0.252801C14.2386 0.511876 13.5058 0.981344 12.9242 1.61538C12.3426 2.24942 11.9321 3.02638 11.7328 3.87042C11.5843 4.49441 11.5435 5.14002 11.6122 5.7783C11.6152 5.80438 11.6126 5.8308 11.6048 5.85582C11.5971 5.88084 11.5842 5.9039 11.567 5.92348C11.5504 5.94408 11.5297 5.96094 11.5064 5.973C11.483 5.98505 11.4575 5.99204 11.4313 5.99351H11.4129C9.63631 5.82839 7.91032 5.30125 6.33723 4.44336C4.76414 3.58547 3.37598 2.41428 2.25504 0.999213V0.999213C2.22787 0.965379 2.19309 0.938734 2.15365 0.921546C2.11422 0.904358 2.0713 0.897134 2.02854 0.900488C1.98578 0.903842 1.94444 0.917678 1.90805 0.940813C1.87166 0.963949 1.84128 0.995701 1.81951 1.03337V1.03337C1.25309 2.02834 1.02701 3.18703 1.1768 4.32728C1.32659 5.46754 1.84376 6.52471 2.64701 7.33261C2.24192 7.23476 1.85189 7.08074 1.48783 6.87485V6.87485C1.44755 6.85211 1.40217 6.84041 1.35612 6.84089C1.31007 6.84136 1.26493 6.854 1.22511 6.87758C1.18528 6.90115 1.15213 6.93485 1.12889 6.97538C1.10565 7.01592 1.09312 7.06191 1.09251 7.10886V7.10886C1.0801 8.11346 1.35398 9.10013 1.88089 9.94908C2.40781 10.798 3.16509 11.4728 4.06081 11.8914H3.95025C3.66221 11.8888 3.37505 11.8585 3.09259 11.8008V11.8008C3.04811 11.7927 3.00233 11.7962 2.95955 11.8111C2.91678 11.826 2.87843 11.8517 2.8481 11.8859C2.81778 11.9201 2.79648 11.9616 2.78621 12.0064C2.77594 12.0513 2.77704 12.0981 2.7894 12.1424V12.1424C3.07648 13.051 3.60358 13.8614 4.3128 14.4845C5.02203 15.1076 5.88594 15.5194 6.80968 15.6747C5.25683 16.7387 3.42742 17.305 1.55651 17.3007H0.973573C0.886515 17.2999 0.801713 17.3289 0.732763 17.3831C0.663813 17.4373 0.614708 17.5136 0.593322 17.5996C0.572481 17.6864 0.580023 17.7778 0.614797 17.8598C0.649572 17.9418 0.709676 18.01 0.78596 18.054C2.91321 19.3224 5.33203 19.9937 7.79632 19.9994C9.86195 20.0185 11.9066 19.576 13.7865 18.703C15.4605 17.9098 16.9531 16.7683 18.1686 15.3518C19.3282 14.006 20.2366 12.4552 20.8488 10.776C21.442 9.17213 21.7511 7.47359 21.7618 5.75951V5.68094C21.7624 5.5497 21.7917 5.42025 21.8476 5.30205C21.9036 5.18385 21.9847 5.07988 22.0851 4.99772C22.8662 4.35134 23.5478 3.58902 24.1069 2.73628C24.1399 2.68694 24.1561 2.62787 24.1528 2.56824C24.1496 2.5086 24.1271 2.45172 24.089 2.4064C24.0508 2.36108 23.9991 2.32984 23.9418 2.31754C23.8844 2.30523 23.8247 2.31253 23.7719 2.33831L23.782 2.32636Z" fill="currentColor"/></svg>
